<?xml version="1.0" standalone="no"?>
 <!DOCTYPE svg PUBLIC "-//W3C//DTD SVG 1.1//EN" 
 "http://www.w3.org/Graphics/SVG/1.1/DTD/svg11.dtd"> 
<svg
  xmlns:svg="http://www.w3.org/2000/svg"
  xmlns="http://www.w3.org/2000/svg"
  xmlns:xlink="http://www.w3.org/1999/xlink"
  version="1.1"
  width="297.0022mm" height="210.0072mm" viewBox="0.0000 0.0000 297.0022 210.0072">
<title>SVG Image created as keyboard-F_Cu.svg date 2026/07/06 15:36:39 </title>
  <desc>Image generated by PCBNEW </desc>
<g style="fill:#000000; fill-opacity:1.0000;stroke:#000000; stroke-opacity:1.0000;
stroke-linecap:round; stroke-linejoin:round;"
 transform="translate(0 0) scale(1 1)">
</g>
<g style="fill:#000000; fill-opacity:1.0000; stroke:none;">
<circle cx="106.6800" cy="48.8900" r="0.5700" /> 
</g>
<g style="fill:#000000; fill-opacity:1.0000; stroke:none;">
<circle cx="106.6800" cy="46.3500" r="0.5700" /> 
</g>
<g style="fill:#000000; fill-opacity:1.0000; stroke:none;">
<circle cx="106.6800" cy="43.8100" r="0.5700" /> 
</g>
<g style="fill:#000000; fill-opacity:1.0000; stroke:none;">
<circle cx="106.6800" cy="41.2700" r="0.5700" /> 
</g>
<g style="fill:#000000; fill-opacity:1.0000; stroke:none;">
<circle cx="106.6800" cy="38.7300" r="0.5700" /> 
</g>
<g style="fill:#000000; fill-opacity:1.0000; stroke:none;">
<circle cx="106.6800" cy="36.1900" r="0.5700" /> 
</g>
<g style="fill:#000000; fill-opacity:1.0000; stroke:none;">
<circle cx="106.6800" cy="33.6500" r="0.5700" /> 
</g>
<g style="fill:#000000; fill-opacity:1.0000; stroke:none;">
<circle cx="106.6800" cy="31.1100" r="0.5700" /> 
</g>
<g style="fill:#000000; fill-opacity:1.0000; stroke:none;">
<circle cx="121.9200" cy="31.1100" r="0.5700" /> 
</g>
<g style="fill:#000000; fill-opacity:1.0000; stroke:none;">
<circle cx="121.9200" cy="33.6500" r="0.5700" /> 
</g>
<g style="fill:#000000; fill-opacity:1.0000; stroke:none;">
<circle cx="121.9200" cy="36.1900" r="0.5700" /> 
</g>
<g style="fill:#000000; fill-opacity:1.0000; stroke:none;">
<circle cx="121.9200" cy="38.7300" r="0.5700" /> 
</g>
<g style="fill:#000000; fill-opacity:1.0000; stroke:none;">
<circle cx="121.9200" cy="41.2700" r="0.5700" /> 
</g>
<g style="fill:#000000; fill-opacity:1.0000; stroke:none;">
<circle cx="121.9200" cy="43.8100" r="0.5700" /> 
</g>
<g style="fill:#000000; fill-opacity:1.0000; stroke:none;">
<circle cx="121.9200" cy="46.3500" r="0.5700" /> 
</g>
<g style="fill:#000000; fill-opacity:1.0000; stroke:none;">
<circle cx="121.9200" cy="48.8900" r="0.5700" /> 
</g>
<g style="fill:#000000; fill-opacity:1.0000; stroke:none;">
<circle cx="135.8900" cy="52.0700" r="1.1500" /> 
</g>
<g style="fill:#000000; fill-opacity:1.0000; stroke:none;">
<circle cx="129.5400" cy="54.6100" r="1.1500" /> 
</g>
<g style="fill:#000000; fill-opacity:1.0000; stroke:none;">
<circle cx="129.5400" cy="35.5600" r="1.1500" /> 
</g>
<g style="fill:#000000; fill-opacity:1.0000; stroke:none;">
<circle cx="135.8900" cy="33.0200" r="1.1500" /> 
</g>
<g style="fill:#000000; fill-opacity:1.0000; stroke:none;">
<circle cx="129.5400" cy="73.6600" r="1.1500" /> 
</g>
<g style="fill:#000000; fill-opacity:1.0000; stroke:none;">
<circle cx="135.8900" cy="71.1200" r="1.1500" /> 
</g>
<g style="fill:none; 
stroke:#000000; stroke-width:0.8000; stroke-opacity:1; 
stroke-linecap:round; stroke-linejoin:round;">
<path d="M121.9200 48.8900
L121.9200 66.0400
" />
<path d="M121.9200 66.0400
L129.5400 73.6600
" />
<path d="M121.9200 46.3500
L129.5400 53.9700
" />
<path d="M135.9949 52.1749
L135.9949 71.0151
" />
<path d="M136.9281 51.0319
L135.8900 52.0700
" />
<path d="M135.2600 33.6500
L135.8900 33.0200
" />
<path d="M135.8900 33.0200
L136.9281 34.0581
" />
<path d="M136.9281 34.0581
L136.9281 51.0319
" />
<path d="M121.9200 33.6500
L135.2600 33.6500
" />
<path d="M128.4400 35.5600
L129.5400 35.5600
" />
<path d="M126.0000 38.0000
L128.4400 35.5600
" />
<path d="M126.0000 39.7300
L126.0000 38.0000
" />
<path d="M121.9200 43.8100
L126.0000 39.7300
" />
</g> 
</svg>
